<?xml version="1.0" encoding="iso-8859-1"?>
<!-- Generator: Adobe Illustrator 19.0.0, SVG Export Plug-In . SVG Version: 6.00 Build 0)  -->
<svg version="1.1" id="&#x421;&#x43B;&#x43E;&#x439;_2"
	 xmlns="http://www.w3.org/2000/svg" xmlns:xlink="http://www.w3.org/1999/xlink" x="0px" y="0px" viewBox="0 0 477.5 477.417"
	 style="enable-background:new 0 0 477.5 477.417;" xml:space="preserve">
<path id="XMLID_11_" style="fill-rule:evenodd;clip-rule:evenodd;fill:#FFFFFF;" d="M238.75,1C107.49,1,1.083,107.407,1.083,238.667
	S107.49,476.333,238.75,476.333s237.667-106.407,237.667-237.667S370.01,1,238.75,1z M239.109,72.333
	c39.58,0,71.667,32.086,71.667,71.667s-32.086,71.667-71.667,71.667c-39.58,0-71.667-32.086-71.667-71.667
	S199.528,72.333,239.109,72.333z M238.75,410.25c-68.53,0-108.5-31.083-142.392-74.502C93,299.167,165.452,261.44,239.417,261.44
	c72.605,0,139.333,33.226,142.556,72.011C356,370.917,308.499,410.25,238.75,410.25z"/>
</svg>
