<?xml version="1.0" encoding="iso-8859-1"?>
<!-- Generator: Adobe Illustrator 19.0.0, SVG Export Plug-In . SVG Version: 6.00 Build 0)  -->
<svg version="1.1" id="&#x421;&#x43B;&#x43E;&#x439;_2"
	 xmlns="http://www.w3.org/2000/svg" xmlns:xlink="http://www.w3.org/1999/xlink" x="0px" y="0px" viewBox="0 0 99.751 131.879"
	 style="enable-background:new 0 0 99.751 131.879;" xml:space="preserve">
<g id="XMLID_4_">
	<g id="XMLID_13_">
		<path id="XMLID_22_" style="fill-rule:evenodd;clip-rule:evenodd;fill:#FFFFFF;" d="M69.143,87.003
			c-4.517-0.078-8.456-4.769-13.818-3.439l-0.67-2.069l0.044-0.019c5.683-2.278,5.61-9.51,10.423-11.647l1.277-0.413
			c2.987-0.656,7.557,0.325,15.265,4.4l0,0C76.516,84.337,72.655,87.066,69.143,87.003z"/>
		<g id="XMLID_17_">
			<path id="XMLID_21_" style="fill-rule:evenodd;clip-rule:evenodd;fill:#FFFFFF;" d="M49.409,50.329v-0.005
				c6.256,6.071,8.602,10.117,8.903,13.157v1.345c-0.549,5.236-7.446,7.402-7.858,13.512l-0.005,0.049h-2.171
				C47.583,68.591,30.171,68.945,49.409,50.329z"/>
			<path id="XMLID_20_" style="fill-rule:evenodd;clip-rule:evenodd;fill:#FFFFFF;" d="M17.164,73.695L17.164,73.695
				c7.708-4.075,12.278-5.056,15.265-4.405l1.277,0.418c4.813,2.137,4.74,9.369,10.423,11.647l0.044,0.019l-0.67,2.064
				C33.974,81.078,28.933,97.742,17.164,73.695z"/>
			<path id="XMLID_19_" style="fill-rule:evenodd;clip-rule:evenodd;fill:#FFFFFF;" d="M30.006,95.857l0.787-1.088
				c3.521-3.92,10.379-1.617,14.299-6.314l0.034-0.039l1.758,1.277c-5.192,8.334,9.097,18.281-17.407,22.041h-0.005
				C27.981,103.148,28.462,98.495,30.006,95.857z"/>
			<path id="XMLID_18_" style="fill-rule:evenodd;clip-rule:evenodd;fill:#FFFFFF;" d="M69.396,111.603h-0.005
				c-26.504-3.754-12.215-13.701-17.407-22.036l1.758-1.277l0.034,0.039c3.92,4.697,10.778,2.394,14.299,6.309l0.792,1.088
				C70.406,98.363,70.887,103.016,69.396,111.603z"/>
		</g>
		<path id="XMLID_14_" style="fill-rule:evenodd;clip-rule:evenodd;fill:#FFFFFF;" d="M41.901,84.181
			c0-4.206,3.414-7.625,7.625-7.625c4.206,0,7.625,3.419,7.625,7.625c0,4.211-3.419,7.625-7.625,7.625
			C45.315,91.807,41.901,88.392,41.901,84.181z M53.922,84.118c0-2.39-1.991-4.328-4.449-4.328c-2.453,0-4.444,1.938-4.444,4.328
			s1.991,4.328,4.444,4.328C51.93,88.446,53.922,86.508,53.922,84.118z"/>
	</g>
	<g id="XMLID_7_">
		<path id="XMLID_10_" style="fill-rule:evenodd;clip-rule:evenodd;fill:#FFFFFF;" d="M0,124.692V9.704h39.288v41.658
			c-14.153,4.352-24.445,17.529-24.445,33.1c0,19.112,15.508,34.62,34.62,34.62s34.62-15.508,34.62-34.62
			c0-15.26-9.889-28.228-23.609-32.833V9.704h39.278v114.988H0z"/>
		<g id="XMLID_8_">
			<polygon id="XMLID_9_" style="fill-rule:evenodd;clip-rule:evenodd;fill:#FFFFFF;" points="35.587,13.415 30.118,0 68.711,0 
				63.15,13.415 			"/>
		</g>
	</g>
</g>
</svg>
